<?xml version="1.0" encoding="UTF-8" standalone="no"?>
<svg xmlns="http://www.w3.org/2000/svg" width="60mm" height="80mm" viewBox="0 0 60 80" version="1.1">
<g transform="scale(.5) translate(0,-130)">
  <path style="stroke:#888;stroke-width:1;" d="M 30,260 80,160" />
  <path style="stroke:#888;stroke-width:1;" d="M 55,260 55,180" />
  <path style="stroke:#000;stroke-width:1;" d="M 55,180 80,160" />
  <path style="stroke:#888;stroke-width:1;" d="M 30,260 55,260" />
  <path style="stroke:#888;stroke-width:1;stroke-dasharray:2,1;" d="M 55,260 80,260" />
  <path style="stroke:#888;stroke-width:1;stroke-dasharray:2,1;" d="M 10,260 30,260" />
  <path style="stroke:#000;stroke-width:1;stroke-dasharray:2,1;" d="M 55,180 30,200" />
  <path style="stroke:#000;stroke-width:1;stroke-dasharray:2,1;" d="M 80,160 105,140" />
  <circle style="fill:#000;stroke:#000;stroke-width:1;stroke-opacity:1" r="1" cy="210" cx="55" />
  <circle style="fill:#000;stroke:#000;stroke-width:1;stroke-opacity:1" r="1" cy="160" cx="80" />
  <circle style="fill:#000;stroke:#000;stroke-width:1;stroke-opacity:1" r="1" cy="260" cx="30" />
  <circle style="fill:#000;stroke:#000;stroke-width:1;stroke-opacity:1" r="1" cy="260" cx="55" />
  <circle style="fill:#000;stroke:#000;stroke-width:1;stroke-opacity:1" r="1" cy="180" cx="55" />
  <text style="font-size:12;font-family:sans-serif;text-align:center;text-anchor:middle;" y="160" x="15">(A)</text>
  <text style="font-size:10;font-family:sans-serif;text-align:center;text-anchor:middle;" y="215" x="65">p</text>
  <text style="font-size:10;font-family:sans-serif;text-align:center;text-anchor:middle;" y="275" x="55">c'</text>
  <text style="font-size:10;font-family:sans-serif;text-align:center;text-anchor:middle;" y="275" x="30">c</text>
  <text style="font-size:10;font-family:sans-serif;text-align:center;text-anchor:middle;" y="175" x="50">q</text>
  <text style="font-size:10;font-family:sans-serif;text-align:center;text-anchor:middle;" y="155" x="75">q'</text>
</g>
</svg>
